<?xml version="1.0"?>
<svg width="32" height="32" xmlns="http://www.w3.org/2000/svg" xmlns:svg="http://www.w3.org/2000/svg">
 <g class="layer">
  <title>Layer 1</title>
  <path d="m16,29.33c-1.03,0 -2.05,-0.39 -2.83,-1.17l-0.98,-0.97c-0.37,-0.37 -0.88,-0.58 -1.42,-0.58l-1.36,0c-2.22,0 -4.02,-1.81 -4.02,-4.02l0,-1.37c0,-0.53 -0.21,-1.04 -0.59,-1.42l-0.95,-0.96c-1.57,-1.55 -1.58,-4.1 -0.02,-5.67l0.98,-0.98c0.37,-0.37 0.58,-0.88 0.58,-1.41l0,-1.37c0,-2.22 1.8,-4.02 4.02,-4.02l1.37,0c0.53,0 1.03,-0.21 1.41,-0.59l0.96,-0.95c1.56,-1.57 4.11,-1.58 5.68,-0.02l0.97,0.98c0.38,0.37 0.89,0.58 1.42,0.58l1.37,0c2.21,0 4.02,1.8 4.02,4.02l0,1.37c0,0.53 0.2,1.04 0.58,1.42l0.96,0.95c0.76,0.76 1.18,1.76 1.18,2.84c0,1.06 -0.41,2.07 -1.15,2.83c-0.02,0.01 -0.03,0.02 -0.04,0.04l-0.95,0.94c-0.38,0.38 -0.58,0.89 -0.58,1.42l0,1.37c0,2.21 -1.81,4.02 -4.02,4.02l-1.37,0c-0.53,0 -1.04,0.21 -1.42,0.58l-0.96,0.96c-0.78,0.79 -1.81,1.18 -2.84,1.18" fill="#393939" id="svg_1" opacity="0.4" transform="matrix(1 0 0 1 0 0)"/>
  <path clip-rule="evenodd" d="m13.39,13.4c-0.22,0.22 -0.5,0.34 -0.82,0.34c-0.3,0 -0.59,-0.12 -0.82,-0.34c-0.22,-0.22 -0.35,-0.52 -0.35,-0.83c0,-0.29 0.13,-0.59 0.34,-0.82c0.12,-0.12 0.26,-0.21 0.4,-0.26c0.41,-0.18 0.94,-0.07 1.26,0.26c0.11,0.12 0.2,0.24 0.25,0.37c0.07,0.14 0.1,0.29 0.1,0.45c0,0.32 -0.13,0.62 -0.36,0.83zm6.86,-1.65c-0.45,-0.46 -1.19,-0.46 -1.65,0l-6.85,6.85c-0.45,0.45 -0.45,1.19 0,1.65c0.22,0.22 0.51,0.34 0.83,0.34c0.31,0 0.6,-0.12 0.82,-0.34l6.85,-6.85c0.46,-0.46 0.46,-1.2 0,-1.65zm-0.38,6.6c-0.43,-0.18 -0.94,-0.08 -1.28,0.26c-0.07,0.08 -0.17,0.21 -0.24,0.36c-0.07,0.16 -0.08,0.34 -0.08,0.46c0,0.11 0.01,0.29 0.08,0.45c0.07,0.15 0.15,0.27 0.25,0.38c0.24,0.22 0.52,0.33 0.84,0.33c0.29,0 0.58,-0.12 0.82,-0.34c0.21,-0.21 0.33,-0.5 0.33,-0.82c0,-0.32 -0.12,-0.62 -0.33,-0.83c-0.12,-0.11 -0.26,-0.21 -0.39,-0.25z" fill="#f7f720" fill-rule="evenodd" id="svg_2"/>
 </g>
</svg>