<?xml version="1.0" encoding="UTF-8"?>
<!-- Generator: visioncortex VTracer 0.6.1 -->
<svg version="1.1" xmlns="http://www.w3.org/2000/svg" width="720" height="1280">
<path d="M0 0 C1.8427224 -0.0076664 1.8427224 -0.0076664 3.72267151 -0.01548767 C7.07600773 -0.02697103 10.42909602 -0.02946306 13.78243446 -0.02692437 C16.58807062 -0.02585099 19.39368424 -0.03074724 22.19931555 -0.03552979 C28.8202316 -0.04660417 35.4410909 -0.04707365 42.06201172 -0.04101562 C48.88024985 -0.03497283 55.69828178 -0.04729923 62.51648474 -0.06858569 C68.38336672 -0.086225 74.25018319 -0.09219951 80.1170907 -0.08894795 C83.61550671 -0.08713913 87.1137755 -0.08973127 90.61216736 -0.10366249 C94.51366213 -0.11861953 98.41489578 -0.10925033 102.31640625 -0.09765625 C104.04347557 -0.10912186 104.04347557 -0.10912186 105.80543518 -0.12081909 C114.16616089 -0.06591363 120.51582895 1.13228403 126.65820312 7.2746582 C133.46324126 16.23792849 138.94085515 32.05394696 138.04101562 43.34106445 C136.75977009 49.81266179 132.90215967 53.61580671 127.65820312 57.2746582 C124.57199269 58.30339501 122.45779575 58.40285634 119.22373962 58.40837097 C117.53064415 58.41476845 117.53064415 58.41476845 115.80334473 58.42129517 C114.56427368 58.42084198 113.32520264 58.42038879 112.04858398 58.41992188 C110.74438004 58.42328049 109.44017609 58.4266391 108.09645081 58.43009949 C104.51809121 58.43893796 100.93975552 58.44127747 97.36138606 58.44191527 C94.37654224 58.4428643 91.391704 58.44654235 88.40686232 58.45008737 C81.3681625 58.45823056 74.32947547 58.46067164 67.29077148 58.45996094 C60.02154529 58.45935946 52.75239315 58.46992547 45.48318571 58.4857046 C39.24704861 58.49876058 33.01093577 58.50414569 26.7747851 58.50350553 C23.04790396 58.50325006 19.32108868 58.50612815 15.59422112 58.51668358 C11.44223803 58.5281223 7.29042213 58.52362973 3.13842773 58.51757812 C1.89733246 58.52319763 0.65623718 58.52881714 -0.62246704 58.53460693 C-1.74837753 58.53041245 -2.87428802 58.52621796 -4.03431702 58.52189636 C-5.01673905 58.52244113 -5.99916109 58.5229859 -7.01135349 58.52354717 C-9.34179688 58.2746582 -9.34179688 58.2746582 -11.34179688 56.2746582 C-13.17633357 47.56060891 -11.55201014 38.98619338 -10.34179688 30.2746582 C-10.58824951 30.98074219 -10.83470215 31.68682617 -11.08862305 32.41430664 C-12.21921735 35.62376967 -13.37392364 38.82403631 -14.52929688 42.0246582 C-14.91666016 43.13583008 -15.30402344 44.24700195 -15.703125 45.3918457 C-16.09306641 46.46176758 -16.48300781 47.53168945 -16.88476562 48.6340332 C-17.23563232 49.61855469 -17.58649902 50.60307617 -17.94799805 51.61743164 C-19.62560942 54.81573646 -21.30286472 56.34642932 -24.34179688 58.2746582 C-29.01111587 58.2746582 -31.28607959 57.9402191 -35.21679688 55.4621582 C-38.50889179 52.07323697 -39.70138271 49.1072673 -39.96679688 44.3996582 C-39.86994934 37.85437892 -37.91032161 32.18118725 -35.71679688 26.0871582 C-35.38631348 25.16112793 -35.05583008 24.23509766 -34.71533203 23.28100586 C-31.52586229 14.86831038 -27.66313031 6.52023649 -19.34179688 2.2746582 C-12.92206208 -0.10080604 -6.7931185 -0.01461672 0 0 Z " fill="#0B0D0A" transform="translate(302.341796875,465.725341796875)"/>
<path d="M0 0 C1.1859375 0.00257813 2.371875 0.00515625 3.59375 0.0078125 C4.7796875 0.00523437 5.965625 0.00265625 7.1875 0 C10.09375 0.1328125 10.09375 0.1328125 11.09375 1.1328125 C11.18907328 4.20736011 11.2192638 7.25940408 11.20727539 10.33422852 C11.20742142 11.29997803 11.20756744 12.26572754 11.2077179 13.26074219 C11.20701834 16.46942349 11.19922397 19.67804753 11.19140625 22.88671875 C11.18954222 25.10489368 11.18811825 27.32306902 11.18711853 29.54124451 C11.18329216 35.39221321 11.17346086 41.24315727 11.16241455 47.09411621 C11.15040902 54.10748536 11.14579876 61.12086272 11.13996124 68.1342392 C11.13024916 78.80044746 11.11109343 89.4666016 11.09375 100.1328125 C25.61375 100.1328125 40.13375 100.1328125 55.09375 100.1328125 C55.09375 67.1328125 55.09375 34.1328125 55.09375 0.1328125 C59.71375 0.1328125 64.33375 0.1328125 69.09375 0.1328125 C71.02599465 2.06505715 70.21393438 4.96891639 70.21817017 7.53990173 C70.21277725 8.92309349 70.21277725 8.92309349 70.20727539 10.33422852 C70.20742142 11.29997803 70.20756744 12.26572754 70.2077179 13.26074219 C70.20701834 16.46942349 70.19922397 19.67804753 70.19140625 22.88671875 C70.18954222 25.10489368 70.18811825 27.32306902 70.18711853 29.54124451 C70.18329216 35.39221321 70.17346086 41.24315727 70.16241455 47.09411621 C70.15040902 54.10748536 70.14579876 61.12086272 70.13996124 68.1342392 C70.13024916 78.80044746 70.11109343 89.4666016 70.09375 100.1328125 C84.61375 100.1328125 99.13375 100.1328125 114.09375 100.1328125 C114.09375 67.1328125 114.09375 34.1328125 114.09375 0.1328125 C118.71375 0.1328125 123.33375 0.1328125 128.09375 0.1328125 C129.66852774 1.70759024 129.21972352 3.27323177 129.22073364 5.46032715 C129.22355347 6.39422775 129.22637329 7.32812836 129.22927856 8.29032898 C129.22624222 9.83947746 129.22624222 9.83947746 129.22314453 11.41992188 C129.22577301 13.04170097 129.22577301 13.04170097 129.22845459 14.69624329 C129.23287558 18.28969909 129.22993424 21.88310615 129.2265625 25.4765625 C129.22723547 27.96138519 129.22820543 30.44620781 129.22946167 32.93103027 C129.23112858 38.81594625 129.22761577 44.70084437 129.2223109 50.58575773 C129.21855608 55.28650848 129.21988367 59.98723831 129.22412109 64.68798828 C129.22990037 71.1535554 129.23083453 77.61910221 129.22756577 84.08467102 C129.22689625 86.55674748 129.22772577 89.0288248 129.23004532 91.50090027 C129.23257039 94.94919148 129.2287333 98.39741685 129.22314453 101.84570312 C129.22516876 102.87846878 129.22719299 103.91123444 129.22927856 104.97529602 C129.22645874 105.90919662 129.22363892 106.84309723 129.22073364 107.80529785 C129.2201681 109.02979519 129.2201681 109.02979519 129.21959114 110.27902985 C129.09375 112.1328125 129.09375 112.1328125 128.09375 113.1328125 C126.38549312 113.22903286 124.67322886 113.25468878 122.96226501 113.25306702 C121.85022202 113.25444168 120.73817902 113.25581635 119.59243774 113.25723267 C118.36173553 113.25363739 117.13103333 113.25004211 115.86303711 113.24633789 C114.57541977 113.24648392 113.28780243 113.24662994 111.96116638 113.2467804 C108.4200024 113.24706836 104.87887201 113.24117186 101.33771586 113.23420644 C97.64080012 113.22797267 93.94388369 113.22736908 90.2469635 113.22618103 C83.24171101 113.22306778 76.23647405 113.21485449 69.23122841 113.20483154 C61.25796124 113.1936702 53.28469335 113.1881599 45.31142032 113.18313611 C28.90552111 113.17267187 12.49963753 113.15507255 -3.90625 113.1328125 C-3.92958003 98.54710055 -3.94716327 83.96139147 -3.95806217 69.37566471 C-3.96322491 62.60370829 -3.97026718 55.83176345 -3.98168945 49.05981445 C-3.99269714 42.53056824 -3.99852625 36.00132956 -4.00112724 29.47207451 C-4.00298199 26.97487638 -4.00660354 24.47767895 -4.01198006 21.98048592 C-4.01918684 18.49617181 -4.0202411 15.01190819 -4.01977539 11.52758789 C-4.02337067 10.48390045 -4.02696594 9.44021301 -4.03067017 8.36489868 C-4.0292955 7.42113876 -4.02792084 6.47737885 -4.02650452 5.50502014 C-4.02742631 4.68001542 -4.0283481 3.8550107 -4.02929783 3.00500584 C-3.82349689 -0.12628999 -3.17943434 0.14529673 0 0 Z " fill="#0B0D0A" transform="translate(411.90625,627.8671875)"/>
<path d="M0 0 C53.77777778 0 53.77777778 0 66.875 7.6875 C72.72036306 14.04863039 75.36159974 21.12791555 75.21484375 29.75390625 C74.53079 36.90537724 72.37034773 43.08670314 67 48 C63.75279979 49.87759889 60.43347811 51.4932698 57 53 C57.78503906 53.3403125 58.57007813 53.680625 59.37890625 54.03125 C67.20884561 57.64359012 73.38274237 61.40448369 77.1328125 69.421875 C79.69117515 77.027818 79.67485413 85.43956755 77 93 C72.21650291 102.285612 65.6305547 107.32518307 56 111 C37.68415753 114.66316849 18.67856763 113 0 113 C0 75.71 0 38.42 0 0 Z M15 13 C15 24.55 15 36.1 15 48 C21.4040625 48.061875 21.4040625 48.061875 27.9375 48.125 C29.92898071 48.15231201 29.92898071 48.15231201 31.96069336 48.18017578 C45.35035441 48.32916061 45.35035441 48.32916061 56.61328125 41.9609375 C59.86599315 37.361328 60.43730047 31.90650209 59.61328125 26.4296875 C58.22020409 21.54989119 56.47333933 18.66270198 52 16 C46.46050145 13.30126994 40.81974809 12.87217946 34.7265625 12.90234375 C33.68580566 12.90484131 32.64504883 12.90733887 31.57275391 12.90991211 C30.26999512 12.91901611 28.96723633 12.92812012 27.625 12.9375 C23.45875 12.958125 19.2925 12.97875 15 13 Z M15 60 C14.67 73.2 14.34 86.4 14 100 C21.610625 100.12375 21.610625 100.12375 29.375 100.25 C30.95458496 100.28641602 32.53416992 100.32283203 34.16162109 100.36035156 C42.5786484 100.42633408 50.86627654 100.32692975 57.63427734 94.62255859 C62.02170097 89.8116082 63.44678327 84.50599156 63.25 78.0859375 C62.66186449 73.17868187 61.22058893 69.29033687 57.8125 65.6875 C48.02815862 59.81689517 38.18810363 59.85591176 27.0625 59.9375 C21.0915625 59.9684375 21.0915625 59.9684375 15 60 Z " fill="#0B0D0A" transform="translate(167,628)"/>
<path d="M0 0 C4.29 0 8.58 0 13 0 C17.77377546 11.30782083 22.29459518 22.71306631 26.8125 34.125 C27.43137085 35.6867244 27.43137085 35.6867244 28.06274414 37.27999878 C34.85379647 54.42851791 41.49492722 71.63045163 48.01098633 88.88525391 C48.32667068 89.72008804 48.64235504 90.55492218 48.96760559 91.41505432 C49.54856075 92.95250902 50.12811074 94.49049588 50.70585632 96.02915955 C51.94916459 99.32176834 53.24083913 102.55605133 54.6953125 105.76147461 C56 109 56 109 56 113 C51.38 113 46.76 113 42 113 C38.31787378 106.0486963 35.52935885 98.85137651 32.75 91.5 C31.1825 87.375 29.615 83.25 28 79 C6.22 78.505 6.22 78.505 -16 78 C-16.99 81.3 -17.98 84.6 -19 88 C-19.79294229 90.16117152 -20.61583863 92.31180961 -21.48046875 94.4453125 C-21.92197266 95.54101562 -22.36347656 96.63671875 -22.81835938 97.765625 C-23.49608398 99.42851563 -23.49608398 99.42851563 -24.1875 101.125 C-24.65091797 102.27226563 -25.11433594 103.41953125 -25.59179688 104.6015625 C-26.7239017 107.4026466 -27.86139479 110.20155193 -29 113 C-33.95 113 -38.9 113 -44 113 C-41.9255659 106.62600465 -39.65751339 100.36771826 -37.21875 94.125 C-36.85249512 93.18215652 -36.48624023 92.23931305 -36.10888672 91.26789856 C-34.90799128 88.1777907 -33.70407405 85.08887054 -32.5 82 C-31.22832267 78.73190964 -29.95723455 75.46359048 -28.68615723 72.19526672 C-27.80613968 69.9326995 -26.92584632 67.67023954 -26.04528809 65.40788269 C-22.89215764 57.30427292 -19.7551007 49.19456091 -16.625 41.08203125 C-15.33375529 37.73878219 -14.04227883 34.39562275 -12.75073242 31.05249023 C-11.92050927 28.90181846 -11.09123643 26.75077958 -10.26293945 24.59936523 C-9.10506292 21.59254197 -7.94354589 18.58714843 -6.78125 15.58203125 C-6.4414209 14.69667191 -6.1015918 13.81131256 -5.75146484 12.89912415 C-4.03621507 8.4748469 -2.21372716 4.20633821 0 0 Z M6 17 C5.73372803 17.77899658 5.46745605 18.55799316 5.19311523 19.3605957 C-0.03567022 34.63963115 -5.34267726 49.87281094 -11 65 C0.22 65 11.44 65 23 65 C22.21250609 60.27503654 21.28799483 56.68446942 19.63671875 52.2734375 C19.4034639 51.64450592 19.17020905 51.01557434 18.92988586 50.36758423 C18.1874644 48.36813511 17.43792588 46.3714571 16.6875 44.375 C15.70942658 41.75885501 14.73455116 39.14153567 13.76171875 36.5234375 C13.52581024 35.88952087 13.28990173 35.25560425 13.04684448 34.60247803 C10.89265795 28.77996229 8.91253908 22.90569932 7 17 C6.67 17 6.34 17 6 17 Z " fill="#0B0D0A" transform="translate(317,628)"/>
<path d="M0 0 C0.33 0.99 0.66 1.98 1 3 C-3.56996708 12.00051144 -10.45992601 18.01536177 -19.85620117 21.38256836 C-28.61337663 23.9047067 -38.46136817 22.76139387 -46.93599701 19.85673904 C-60.66649084 15.17241359 -73.97010104 15.12253285 -88.34375 15.203125 C-90.93144049 15.19906919 -93.51912873 15.19323449 -96.10681152 15.18572998 C-101.49577061 15.17695035 -106.88407578 15.18893163 -112.27294922 15.21777344 C-118.44055651 15.2504088 -124.60697238 15.23982452 -130.77455091 15.206815 C-136.78840538 15.17595716 -142.80169283 15.17966446 -148.81562805 15.19710541 C-151.33816197 15.2010591 -153.86072712 15.19637157 -156.38322449 15.18222809 C-170.55171457 15.1201866 -182.97454066 16.04707785 -196.43371582 20.64837646 C-206.81108803 24.05774011 -218.63674818 23.42143258 -228.44140625 18.62109375 C-234.4885136 14.78972039 -239.55209931 9.85412192 -242 3 C-241.67 2.34 -241.34 1.68 -241 1 C-240.30777344 1.88751953 -240.30777344 1.88751953 -239.6015625 2.79296875 C-233.00945829 10.77905547 -225.82428253 15.15323793 -215.53125 16.7734375 C-204.81876952 17.73227063 -195.23106048 14.0936824 -185.25073242 10.6484375 C-178.95198387 8.83376387 -172.74635153 8.83467092 -166.24731445 8.80712891 C-165.17480438 8.79895142 -164.10229431 8.79077393 -162.99728394 8.78234863 C-159.45262189 8.75757041 -155.90799992 8.74099092 -152.36328125 8.7265625 C-151.145819 8.72123882 -149.92835674 8.71591515 -148.67400169 8.71043015 C-142.22009283 8.68372147 -135.76620309 8.66434594 -129.31225586 8.64990234 C-124.00216089 8.63661171 -118.69254147 8.60884564 -113.38256836 8.56787109 C-106.94352443 8.51819652 -100.50483056 8.493738 -94.06560326 8.48667526 C-91.62790287 8.48001677 -89.19020861 8.46493853 -86.75261879 8.44078445 C-72.04695458 8.30347022 -58.98044947 9.26865972 -45 14 C-34.38257161 17.57090234 -24.15813581 18.05220938 -13.75 13.25 C-7.91090245 10.02470793 -3.02064253 6.04128506 0 0 Z " fill="#0B0D0A" transform="translate(472,600)"/>
<path d="M0 0 C2.31 0 4.62 0 7 0 C7.66 0.66 8.32 1.32 9 2 C9.99 1.34 10.98 0.68 12 0 C16.47208083 -0.72022276 19.98669453 -0.58211165 23.9375 1.6875 C28.37478526 6.66263801 28.37572588 11.71693182 28.25 18.12109375 C27.81757194 23.10077317 26.12353744 25.81404382 22.75 29.375 C19.22875235 31.45573725 17.03199591 31.4398541 13 31 C11.68 30.34 10.36 29.68 9 29 C8.67 33.95 8.34 38.9 8 44 C5.36 44 2.72 44 0 44 C0 29.48 0 14.96 0 0 Z M9 9 C7.72334245 14.42579459 8.22334198 17.87904454 10 23 C11.98 23.33 13.96 23.66 16 24 C18.70309399 20.92603295 19.39250711 19.01786274 19.3125 14.9375 C19.30863281 14.08027344 19.30476563 13.22304688 19.30078125 12.33984375 C19.14148154 9.73112696 19.14148154 9.73112696 17 7 C12.49434891 6.44745736 12.49434891 6.44745736 9 9 Z " fill="#0B0D0A" transform="translate(311,772)"/>
<path d="M0 0 C2.31 0 4.62 0 7 0 C7 0.99 7 1.98 7 3 C7.639375 2.505 8.27875 2.01 8.9375 1.5 C13.0390205 -0.508908 16.51019806 -0.87188531 21 0 C24.83324266 2.8545424 26.5074729 5.53551106 28 10 C28.69224488 16.17626276 28.69243807 21.77965653 25 27 C22.08714665 30.07467854 20.68323256 30.92808078 16.4375 31.375 C13 31 13 31 9 29 C8.67 33.95 8.34 38.9 8 44 C5.36 44 2.72 44 0 44 C0 29.48 0 14.96 0 0 Z M9.0625 8.875 C7.56258157 13.28652478 7.74402497 17.50869689 9 22 C11.75698184 24.28138945 11.75698184 24.28138945 14.5625 23.8125 C17.33255117 23.16627558 17.33255117 23.16627558 19 20 C19.31662439 17.58849742 19.31662439 17.58849742 19.25 15 C19.25515625 14.13375 19.2603125 13.2675 19.265625 12.375 C19.15414552 9.734205 19.15414552 9.734205 17 7 C13.37145443 6.38237522 11.76019238 6.26432996 9.0625 8.875 Z " fill="#0B0D0A" transform="translate(509,772)"/>
<path d="M0 0 C1.34365128 -0.01073296 1.34365128 -0.01073296 2.71444702 -0.02168274 C3.69476395 -0.02437164 4.67508087 -0.02706055 5.68510437 -0.02983093 C6.71953674 -0.03640213 7.75396912 -0.04297333 8.81974792 -0.04974365 C12.24841888 -0.0694803 15.67704606 -0.0811394 19.10575867 -0.09111023 C20.27600271 -0.09518576 21.44624676 -0.09926128 22.65195274 -0.10346031 C28.84447936 -0.12432146 35.0369838 -0.13862366 41.22953796 -0.147995 C47.62882286 -0.15906642 54.0277607 -0.19347507 60.4269228 -0.23316669 C65.3451401 -0.2592956 70.26327419 -0.26768349 75.18155479 -0.27127647 C77.54067011 -0.27615114 79.8997815 -0.28779 82.25882912 -0.30631447 C85.56005607 -0.3306284 88.86037803 -0.32975478 92.16166687 -0.32279968 C93.1359111 -0.33560974 94.11015533 -0.3484198 95.11392212 -0.36161804 C100.94294651 -0.3168553 104.14854934 0.32279271 108.61747742 4.14717102 C110.55107117 6.40107727 110.55107117 6.40107727 112.05497742 8.70967102 C112.82648132 9.85629211 112.82648132 9.85629211 113.61357117 11.02607727 C114.61747742 13.14717102 114.61747742 13.14717102 113.61747742 16.14717102 C113.27716492 15.67666321 112.93685242 15.2061554 112.58622742 14.72138977 C112.10153992 14.09877258 111.61685242 13.4761554 111.11747742 12.83467102 C110.42138367 11.9123468 110.42138367 11.9123468 109.71122742 10.97138977 C103.86120179 5.8744458 96.82151357 5.71005834 89.45707703 5.75898743 C88.47228867 5.75373047 87.48750031 5.74847351 86.47286987 5.74305725 C83.23835593 5.72992214 80.00433956 5.7385718 76.76982117 5.74873352 C74.51115831 5.74671109 72.25249608 5.74379824 69.99383545 5.74003601 C65.26895406 5.73562158 60.54424323 5.74201609 55.81938171 5.75605774 C49.7712317 5.77315872 43.72348084 5.76329681 37.67534542 5.74534035 C33.0144247 5.7344872 28.35359824 5.73795576 23.69267464 5.74572372 C21.46279922 5.74772098 19.23291518 5.74528319 17.00304985 5.73828506 C13.88463109 5.73064446 10.76685437 5.74231139 7.64848328 5.75898743 C6.73244324 5.75291473 5.8164032 5.74684204 4.87260437 5.74058533 C-0.67128637 5.79535365 -4.42540665 6.65572456 -9.38252258 9.14717102 C-10.37252258 9.47717102 -11.36252258 9.80717102 -12.38252258 10.14717102 C-13.0818979 11.46364221 -13.74981392 12.79739253 -14.38252258 14.14717102 C-15.37252258 14.64217102 -15.37252258 14.64217102 -16.38252258 15.14717102 C-15.05463076 9.24542959 -11.72827283 5.20255934 -7.38252258 1.14717102 C-4.5897448 0.21624509 -2.88713474 0.01584865 0 0 Z " fill="#0B0D0A" transform="translate(302.3825225830078,581.8528289794922)"/>
<path d="M0 0 C2.56900561 -0.42243687 4.37859788 -0.36194978 6.65478516 0.96386719 C8.58122973 2.38838451 10.4498132 3.8680536 12.3125 5.375 C25.05878885 15.29742785 38.87248441 23.22235179 53 31 C53 31.66 53 32.32 53 33 C45.18924817 36.90537591 32.04755029 33.83408134 24.32421875 31.32421875 C14.64730804 27.46937418 5.59319828 22.36167453 0.87890625 12.703125 C-0.8341092 8.1655374 -1.34932426 4.78396782 0 0 Z " fill="#0B0D0A" transform="translate(228,547)"/>
<path d="M0 0 C0.59294779 6.9671365 -1.3320384 12.09304694 -5.26171875 17.84765625 C-12.13449665 25.7666838 -24.72682089 31.38520934 -35 33 C-38.008326 33.20390389 -40.98678157 33.1928888 -44 33.125 C-45.16208984 33.11146484 -45.16208984 33.11146484 -46.34765625 33.09765625 C-48.23190843 33.07439388 -50.11599832 33.0385364 -52 33 C-52 31.68 -52 30.36 -52 29 C-51.4831665 28.72961914 -50.96633301 28.45923828 -50.43383789 28.18066406 C-36.7775263 20.98535448 -24.19915673 12.96308966 -11.8984375 3.65234375 C-11.02445312 3.00394531 -10.15046875 2.35554687 -9.25 1.6875 C-8.53328125 1.13449219 -7.8165625 0.58148437 -7.078125 0.01171875 C-4.36060275 -1.3112855 -2.83673215 -0.84804405 0 0 Z " fill="#0B0D0A" transform="translate(474,548)"/>
<path d="M0 0 C2.97 0 5.94 0 9 0 C9.60534154 1.49952625 10.2091975 2.99965222 10.8125 4.5 C11.14894531 5.3353125 11.48539062 6.170625 11.83203125 7.03125 C13.26399063 10.67101298 14.62664574 14.33772198 16 18 C17.98 12.06 19.96 6.12 22 0 C24.97 0 27.94 0 31 0 C29.53375194 7.75134506 26.97878065 14.84504687 24.125 22.1875 C23.69058594 23.33669922 23.25617188 24.48589844 22.80859375 25.66992188 C17.43600102 39.60155497 17.43600102 39.60155497 11.625 42.9375 C7.84904742 44.04424472 5.7576388 44.008147 2 43 C2 40.69 2 38.38 2 36 C4.64 35.67 7.28 35.34 10 35 C11.23391853 30.02317968 10.6980132 27.25801108 8.69140625 22.578125 C8.19189453 21.38832031 7.69238281 20.19851563 7.17773438 18.97265625 C6.63998102 17.73148549 6.1015619 16.49060299 5.5625 15.25 C4.51661623 12.79917415 3.47897282 10.34499739 2.44140625 7.890625 C1.97420166 6.80813477 1.50699707 5.72564453 1.02563477 4.61035156 C0 2 0 2 0 0 Z " fill="#0B0D0A" transform="translate(348,772)"/>
<path d="M0 0 C2.64 0 5.28 0 8 0 C8.33 3.63 8.66 7.26 9 11 C12.3 11.33 15.6 11.66 19 12 C19 8.04 19 4.08 19 0 C21.97 0 24.94 0 28 0 C28.02465622 4.25414623 28.04283899 8.50825498 28.05493164 12.76245117 C28.05997101 14.21070073 28.06680253 15.65894517 28.07543945 17.10717773 C28.08752247 19.18474588 28.09323211 21.26224697 28.09765625 23.33984375 C28.10551147 25.21724243 28.10551147 25.21724243 28.11352539 27.13256836 C28 30 28 30 27 31 C23.5 31.125 23.5 31.125 20 31 C19 30 19 30 18.90234375 27.27734375 C18.91394531 26.17519531 18.92554688 25.07304688 18.9375 23.9375 C18.94652344 22.83277344 18.95554688 21.72804688 18.96484375 20.58984375 C18.97644531 19.73519531 18.98804688 18.88054688 19 18 C15.37 18 11.74 18 8 18 C8 22.29 8 26.58 8 31 C5.36 31 2.72 31 0 31 C0 20.77 0 10.54 0 0 Z " fill="#0B0D0A" transform="translate(196,772)"/>
<path d="M0 0 C0.66 0.556875 1.32 1.11375 2 1.6875 C2.556875 2.1 3.11375 2.5125 3.6875 2.9375 C6.68326843 6.93185791 7.21865231 11.39795662 6.875 16.25 C6.23750885 20.55123337 4.9157802 23.37769545 2 26.6875 C-2.72103779 29.9812473 -7.40181448 30.60046574 -13 29.6875 C-18.11762818 27.03391502 -21.17705942 24.15632174 -23 18.6875 C-23.78259368 12.18299191 -22.81491371 7.06880212 -19 1.6875 C-14.18533362 -2.9812674 -5.84633091 -2.55776977 0 0 Z M-12.875 7.125 C-14.56850528 10.9824287 -14.67509931 14.54587951 -14 18.6875 C-12.57955419 21.44359295 -12.57955419 21.44359295 -10 22.6875 C-6.85289698 22.94079784 -6.85289698 22.94079784 -4 21.6875 C-1.29936902 17.93010038 -2.0161967 14.04577884 -2.515625 9.67578125 C-2.87040367 7.47066488 -2.87040367 7.47066488 -5 5.6875 C-8.30184112 5.26598837 -10.18023401 5.05901274 -12.875 7.125 Z " fill="#0B0D0A" transform="translate(489,773.3125)"/>
<path d="M0 0 C2.97 0 5.94 0 9 0 C9.33 3.96 9.66 7.92 10 12 C10.63808594 11.21753906 11.27617187 10.43507813 11.93359375 9.62890625 C12.75988281 8.61699219 13.58617187 7.60507812 14.4375 6.5625 C15.26121094 5.55316406 16.08492188 4.54382813 16.93359375 3.50390625 C19 1 19 1 20 0 C21.51928038 -0.07179964 23.04167482 -0.08392007 24.5625 -0.0625 C25.38878906 -0.05347656 26.21507812 -0.04445313 27.06640625 -0.03515625 C27.70449219 -0.02355469 28.34257812 -0.01195312 29 0 C26.70388539 4.32209809 23.71624395 7.55751383 20.328125 11.03515625 C18.83097065 12.86097289 18.83097065 12.86097289 18.98046875 14.85546875 C20.50297763 18.05798743 22.75394037 20.59531519 25.0625 23.25 C25.53494141 23.80429687 26.00738281 24.35859375 26.49414062 24.9296875 C27.65658967 26.291749 28.82747855 27.64659956 30 29 C29.67 29.66 29.34 30.32 29 31 C25.76231042 31.58867083 24.11289956 31.856432 21 31 C16.62849666 27.23815164 13.1892614 22.7838921 10 18 C9.93941406 18.85464844 9.87882812 19.70929687 9.81640625 20.58984375 C9.73261719 21.69457031 9.64882813 22.79929687 9.5625 23.9375 C9.48128906 25.03964844 9.40007812 26.14179687 9.31640625 27.27734375 C9 30 9 30 8 31 C4.5 31.125 4.5 31.125 1 31 C0 30 0 30 -0.11352539 27.13256836 C-0.10828857 25.88096924 -0.10305176 24.62937012 -0.09765625 23.33984375 C-0.0962413 22.67537735 -0.09482635 22.01091095 -0.09336853 21.3263092 C-0.08775518 19.19666101 -0.07520054 17.06711661 -0.0625 14.9375 C-0.05748671 13.49674631 -0.05292351 12.05599097 -0.04882812 10.61523438 C-0.03778145 7.07678898 -0.02050792 3.53840461 0 0 Z " fill="#0B0D0A" transform="translate(390,772)"/>
<path d="M0 0 C-0.33 1.98 -0.66 3.96 -1 6 C-3.71884032 6.8700289 -5.71489255 6.98767427 -8.625 6.9375 C-12.07350795 6.61091246 -12.07350795 6.61091246 -14 9 C-14.357148 11.33404054 -14.357148 11.33404054 -14.3125 13.9375 C-14.32925781 14.81277344 -14.34601563 15.68804688 -14.36328125 16.58984375 C-14.16722463 19.02061314 -14.16722463 19.02061314 -12.8046875 20.8359375 C-10.28791344 22.45931124 -8.73980638 22.10568663 -5.8125 21.6875 C-4.91144531 21.56761719 -4.01039063 21.44773437 -3.08203125 21.32421875 C-2.39496094 21.21722656 -1.70789063 21.11023438 -1 21 C-1 23.31 -1 25.62 -1 28 C-5.57372625 30.63463494 -9.83904279 30.65225368 -15 30 C-18.69527184 28.25314422 -20.47717274 26.71453059 -22.875 23.4375 C-24.84303263 17.42406698 -24.84303263 11.57593302 -22.875 5.5625 C-17.29355305 -2.06547749 -8.67167043 -2.89055681 0 0 Z " fill="#0B0D0A" transform="translate(261,773)"/>
<path d="M0 0 C9.24 0 18.48 0 28 0 C28 2.31 28 4.62 28 7 C24.7 7 21.4 7 18 7 C18.01160156 8.64871094 18.02320313 10.29742188 18.03515625 11.99609375 C18.04453238 14.14322804 18.05363277 16.29036355 18.0625 18.4375 C18.07087891 19.52611328 18.07925781 20.61472656 18.08789062 21.73632812 C18.09272461 23.28803711 18.09272461 23.28803711 18.09765625 24.87109375 C18.10551147 26.30859985 18.10551147 26.30859985 18.11352539 27.77514648 C18 30 18 30 17 31 C13.5 31.125 13.5 31.125 10 31 C9 30 9 30 8.88647461 27.77514648 C8.89171143 26.81680908 8.89694824 25.85847168 8.90234375 24.87109375 C8.90556641 23.83662109 8.90878906 22.80214844 8.91210938 21.73632812 C8.92048828 20.64771484 8.92886719 19.55910156 8.9375 18.4375 C8.94201172 17.34501953 8.94652344 16.25253906 8.95117188 15.12695312 C8.96300174 12.41791505 8.97948457 9.70898401 9 7 C6.03 7 3.06 7 0 7 C0 4.69 0 2.38 0 0 Z " fill="#0B0D0A" transform="translate(271,772)"/>
<path d="M0 0 C9.24 0 18.48 0 28 0 C28 2.31 28 4.62 28 7 C24.7 7 21.4 7 18 7 C18 14.92 18 22.84 18 31 C15.36 31 12.72 31 10 31 C10 23.08 10 15.16 10 7 C6.7 7 3.4 7 0 7 C0 4.69 0 2.38 0 0 Z " fill="#0B0D0A" transform="translate(428,772)"/>
<path d="M0 0 C-0.11245177 4.6002998 -0.25676352 8.65521909 -3.1875 12.375 C-9.35891681 18.13498902 -14.16649315 18.29810251 -22.3671875 18.10546875 C-23.23601562 18.07066406 -24.10484375 18.03585937 -25 18 C-24.09720667 11.18188921 -23.04261592 6.80807564 -18 2 C-12.44581923 -1.92856688 -6.03074927 -4.02049952 0 0 Z " fill="#0B0D0A" transform="translate(488,508)"/>
<path d="M0 0 C5.67268807 1.43495512 9.45527518 4.83258839 12.578125 9.66796875 C13.65191167 12.69983699 14.34269282 15.46519784 14.640625 18.66796875 C12.87361868 20.43497507 10.47782084 19.96488103 8.078125 20.04296875 C2.01691403 19.97810442 -1.9469232 18.88949716 -6.359375 14.66796875 C-8.97713042 11.47014253 -10.2500274 8.49588628 -10.796875 4.35546875 C-10.5803125 3.02515625 -10.5803125 3.02515625 -10.359375 1.66796875 C-6.50139602 -0.90401724 -4.47303441 -0.55585954 0 0 Z " fill="#0B0D0A" transform="translate(223.359375,506.33203125)"/>
<path d="M0 0 C2.97 0 5.94 0 9 0 C9.02465622 4.25414623 9.04283899 8.50825498 9.05493164 12.76245117 C9.05997101 14.21070073 9.06680253 15.65894517 9.07543945 17.10717773 C9.08752247 19.18474588 9.09323211 21.26224697 9.09765625 23.33984375 C9.10289307 24.59144287 9.10812988 25.84304199 9.11352539 27.13256836 C9 30 9 30 8 31 C4.5 31.125 4.5 31.125 1 31 C0 30 0 30 -0.11352539 27.13256836 C-0.10828857 25.88096924 -0.10305176 24.62937012 -0.09765625 23.33984375 C-0.0962413 22.67537735 -0.09482635 22.01091095 -0.09336853 21.3263092 C-0.08775518 19.19666101 -0.07520054 17.06711661 -0.0625 14.9375 C-0.05748671 13.49674631 -0.05292351 12.05599097 -0.04882812 10.61523438 C-0.03778145 7.07678898 -0.02050792 3.53840461 0 0 Z " fill="#0B0D0A" transform="translate(172,772)"/>
<path d="M0 0 C0.66 0.33 1.32 0.66 2 1 C-10.22010112 18.51436837 -25.09682179 34.3139309 -45 43 C-45.66 42.67 -46.32 42.34 -47 42 C-46.00742187 41.27296875 -45.01484375 40.5459375 -43.9921875 39.796875 C-19.68962329 22.24684352 -19.68962329 22.24684352 0 0 Z " fill="#0B0D0A" transform="translate(450,533)"/>
<path d="M0 0 C3.02370102 2.19905529 5.49965987 4.51477131 7.875 7.375 C16.82601453 17.772838 27.36817839 26.59506273 38.36474609 34.73706055 C41.83031029 37.30388568 45.05638808 39.82059487 48 43 C30.86676701 37.99420602 15.40516153 23.02051426 5 9 C4.4534375 8.28328125 3.906875 7.5665625 3.34375 6.828125 C0 2.33263889 0 2.33263889 0 0 Z " fill="#0B0D0A" transform="translate(248,533)"/>
<path d="M0 0 C1.11375 0.556875 1.11375 0.556875 2.25 1.125 C2.375 3.5 2.375 3.5 2.25 6.125 C1.59 6.785 0.93 7.445 0.25 8.125 C-3.375 7.75 -3.375 7.75 -6.75 7.125 C-6.75 5.145 -6.75 3.165 -6.75 1.125 C-4.02098495 -0.69434337 -3.21400584 -1.02263822 0 0 Z " fill="#0B0D0A" transform="translate(178.75,760.875)"/>
<path d="" fill="#0B0D0A" transform="translate(0,0)"/>
</svg>
